<svg xmlns="http://www.w3.org/2000/svg" width="30.715" height="27.174" viewBox="0 0 30.715 27.174">
  <g id="Group_371" data-name="Group 371" transform="translate(-1621.785 -898.414)">
    <g id="Icon_feather-heart" data-name="Icon feather-heart" transform="translate(1623.285 899.914)">
      <path id="Icon_feather-heart-2" data-name="Icon feather-heart" d="M27.9,6.634a7.292,7.292,0,0,0-10.316,0L16.18,8.04,14.775,6.634A7.294,7.294,0,1,0,4.459,16.95l1.405,1.405L16.18,28.671,26.5,18.355,27.9,16.95a7.292,7.292,0,0,0,0-10.316Z" transform="translate(-2.323 -4.497)" fill="none" stroke="#000" stroke-linecap="round" stroke-linejoin="round" stroke-width="3"/>
    </g>
    <path id="Path_359" data-name="Path 359" d="M-17871.857-21836.676l3.869-2.836h5.227l4.2,3.412.574,4.775-2.5,4.313-11.369,11.361-12.83-12.5-.912-4.312.912-4.213,3.4-2.836h3.063l4.324.674Z" transform="translate(19509 22740)"/>
  </g>
</svg>
