<svg xmlns="http://www.w3.org/2000/svg" width="46.806" height="44.814" viewBox="0 0 46.806 44.814">
  <g id="Group_379" data-name="Group 379" transform="translate(14825.443 24136.266)">
    <path id="Path_1" data-name="Path 1" d="M15.982,31.991A1.991,1.991,0,1,1,13.991,30,1.991,1.991,0,0,1,15.982,31.991Z" transform="translate(-14822.005 -24126.934)" fill="none" stroke="#000" stroke-linecap="round" stroke-linejoin="round" stroke-width="3"/>
    <path id="Path_2" data-name="Path 2" d="M32.482,31.991A1.991,1.991,0,1,1,30.491,30,1.991,1.991,0,0,1,32.482,31.991Z" transform="translate(-14816.603 -24126.934)" fill="none" stroke="#000" stroke-linecap="round" stroke-linejoin="round" stroke-width="3"/>
    <path id="Path_3" data-name="Path 3" d="M1.5,1.5H9.465L14.8,28.162a3.982,3.982,0,0,0,3.982,3.206H38.137a3.982,3.982,0,0,0,3.982-3.206l3.186-16.706H11.456" transform="translate(-14825.443 -24136.266)" fill="none" stroke="#000" stroke-linecap="round" stroke-linejoin="round" stroke-width="3"/>
  </g>
</svg>
